<svg version="1.1" viewBox="0.0 0.0 122.2782152230971 211.68766404199476" fill="none" stroke="none" stroke-linecap="square" stroke-miterlimit="10" xmlns:xlink="http://www.w3.org/1999/xlink" xmlns="http://www.w3.org/2000/svg"><clipPath id="p.0"><path d="m0 0l122.27821 0l0 211.68767l-122.27821 0l0 -211.68767z" clip-rule="nonzero"/></clipPath><g clip-path="url(#p.0)"><path fill="#000000" fill-opacity="0.0" d="m0 0l122.27821 0l0 211.68767l-122.27821 0z" fill-rule="evenodd"/><path fill="#000000" fill-opacity="0.0" d="m160.76826 32.225147l0 295.27557l-180.97638 0l0 -295.27557z" fill-rule="evenodd"/><path fill="#ffffff" d="m89.87382 177.52681q0 4.796875 -0.328125 10.390625q-0.328125 5.609375 -0.875 10.9375q-0.53125 5.34375 -1.328125 9.46875l-12.265625 -1.328125q0.140625 -6.40625 0.265625 -12.875q0.140625 -6.453125 0.140625 -12.59375q0 -5.203125 -0.203125 -8.0q-0.203125 -2.796875 -1.203125 -3.9375q-1.0 -1.125 -3.53125 -1.125q-3.0625 0 -4.0625 2.0q-1.0 2.0 -2.203125 6.671875l-4.140621 17.1875q-2.125 8.265625 -6.328125 12.265625q-4.203125 4.0 -12.59375 4.0q-8.265625 0 -12.671877 -3.0625q-4.40625 -3.0625 -6.078125 -9.734375q-1.65625 -6.65625 -1.65625 -17.203125q0 -4.125 0.40625 -12.265625q0.390625 -8.125 2.0 -17.71875l12.265627 1.1875q-0.140625 2.53125 -0.203125 6.203125q-0.0625 3.671875 -0.0625 8.0625q0 4.40625 0 8.8125q0 6.921875 0.328125 10.515625q0.328125 3.609375 1.53125 4.9375q1.203125 1.34375 3.609375 1.34375q3.0625 0 4.0625 -2.265625q1.0 -2.265625 2.328125 -7.203125l4.140625 -16.671875q1.734375 -6.390625 4.390625 -9.859375q2.671875 -3.46875 6.46875 -4.875q3.7968712 -1.390625 9.140621 -1.390625q6.796875 0 10.921875 2.796875q4.140625 2.796875 5.9375 8.921875q1.796875 6.140625 1.796875 16.40625z" fill-rule="nonzero"/><path fill="#000000" fill-opacity="0.0" d="m-89.49721 -63.74073l295.27557 0l0 261.7953l-295.27557 0z" fill-rule="evenodd"/><path fill="#ffffff" d="m81.94058 1.1569136l0 110.796875q0 14.203125 -8.296875 21.812492q-8.296875 7.59375 -23.296879 7.59375q-3.609375 0 -8.515625 -0.40625q-4.890625 -0.390625 -9.5 -1.296875q-4.593748 -0.90625 -7.390623 -2.09375l3.40625 -19.812492l9.593748 0q13.796875 0 13.796875 -11.1875l0 -105.40625l30.203129 0z" fill-rule="nonzero"/><path fill="#000000" fill-opacity="0.0" d="m-48.66649 -148.7266l219.9685 0l0 261.7953l-219.9685 0z" fill-rule="evenodd"/><path fill="#ffffff" d="m19.020866 21.867155q5.796875 0 8.09375 2.3125q2.296875 2.296875 2.296875 8.093748l0 9.59375q0 5.8125 -2.296875 8.109375q-2.296875 2.296875 -8.09375 2.296875l-7.609376 0q-5.7968745 0 -8.09375 -2.296875q-2.296875 -2.296875 -2.296875 -8.109375l0 -9.59375q0 -5.796873 2.296875 -8.093748q2.296875 -2.3125 8.09375 -2.3125l7.609376 0zm92.200035 0q5.796875 0 8.09375 2.3125q2.296875 2.296875 2.296875 8.093748l0 9.59375q0 5.8125 -2.296875 8.109375q-2.296875 2.296875 -8.09375 2.296875l-7.609375 0q-5.796875 0 -8.09375 -2.296875q-2.296875 -2.296875 -2.296875 -8.109375l0 -9.59375q0 -5.796873 2.296875 -8.093748q2.296875 -2.3125 8.09375 -2.3125l7.609375 0z" fill-rule="nonzero"/></g></svg>